<?xml version="1.0" encoding="utf-8"?>
<!-- Generator: Adobe Illustrator 16.0.0, SVG Export Plug-In . SVG Version: 6.00 Build 0)  -->
<!DOCTYPE svg PUBLIC "-//W3C//DTD SVG 1.1//EN" "http://www.w3.org/Graphics/SVG/1.1/DTD/svg11.dtd">
<svg version="1.1" id="图层_1" xmlns="http://www.w3.org/2000/svg" x="0px"
     y="0px"
     width="160px" height="48px" viewBox="0 0 160 48" enable-background="new 0 0 160 48" xml:space="preserve">
<rect fill="#F8F8F8" width="160" height="48"/>
    <rect x="2" y="4" width="1" height="40"/>
    <rect x="3" y="3" width="1" height="1"/>
    <rect x="4" y="2" width="151" height="1"/>
    <rect x="155" y="3" width="1" height="1"/>
    <rect x="156" y="4" width="1" height="40"/>
    <rect x="4" y="45" width="151" height="1"/>
    <rect x="3" y="44" width="153" height="1"/>
    <rect x="3" y="43" width="1" height="1"/>
    <rect x="155" y="43" width="1" height="1"/>
    <rect x="5" y="4" width="149" height="1"/>
    <rect x="4" y="5" width="151" height="1"/>
    <rect x="4" y="6" width="1" height="36"/>
    <rect x="154" y="6" width="1" height="36"/>
    <rect x="5" y="42" width="149" height="1"/>
    <rect x="5" y="6" width="1" height="1"/>
    <rect x="153" y="6" width="1" height="1"/>
    <g>
</g>
    <g>
</g>
    <g>
</g>
    <g>
</g>
    <g>
</g>
    <g>
</g>
    <g>
</g>
    <g>
</g>
    <g>
</g>
    <g>
</g>
    <g>
</g>
    <g>
</g>
    <g>
</g>
    <g>
</g>
    <g>
</g>
</svg>
