<?xml version="1.0" encoding="utf-8"?>
<!-- Generator: Adobe Illustrator 16.0.0, SVG Export Plug-In . SVG Version: 6.00 Build 0)  -->
<!DOCTYPE svg PUBLIC "-//W3C//DTD SVG 1.1//EN" "http://www.w3.org/Graphics/SVG/1.1/DTD/svg11.dtd">
<svg version="1.1" id="图层_1" xmlns="http://www.w3.org/2000/svg" xmlns:xlink="http://www.w3.org/1999/xlink" x="0px" y="0px"
	 width="287.479px" height="450px" viewBox="0 0 287.479 450" enable-background="new 0 0 287.479 450" xml:space="preserve">
<path fill="#C4C2C5" d="M287.335,431.88c0,10.006-5.122,18.12-11.437,18.12H11.437C5.12,450,0,441.886,0,431.88V18.121
	C0,8.112,5.12,0,11.437,0h12.396v3.536h5.25V0h10.106l0,3.536h4.124V0h4.645v3.536h4.125V0h4.25l0,3.536h3.875L60.333,0h205v2.589
	h4.938V0h5.628c13.414,0,11.538,0,11.437,18.121V431.88z"/>
<rect y="26.464" fill="#B1B0B3" width="287.333" height="3.71"/>
<rect x="23.833" y="3.536" fill="#B1B0B3" width="5.25" height="22.922"/>
<rect x="265.333" y="2.589" fill="#B1B0B3" width="4.938" height="23.87"/>
<path fill="#B1B0B3" d="M95.965,14.573c0,3.963-3.213,7.176-7.176,7.176h-46.53c-3.964,0-7.176-3.212-7.176-7.176l0,0
	c0-3.963,3.212-7.176,7.176-7.176h46.53C92.752,7.397,95.965,10.609,95.965,14.573L95.965,14.573z"/>
<path fill="#C4C2C5" d="M94.54,14.461c0,3.529-2.398,6.39-5.357,6.39H43.547c-2.958,0-5.357-2.861-5.357-6.39l0,0
	c0-3.53,2.398-6.391,5.357-6.391h45.636C92.142,8.07,94.54,10.932,94.54,14.461L94.54,14.461z"/>
<g>
	<rect x="43.323" y="6.5" fill="none" width="56.509" height="18.164"/>
	<path fill="#B1B0B3" d="M44.164,16.592V15.75V14.91v-0.841v-0.841v-0.841v-0.841v-0.841V9.864h4.205v0.841h0.841v0.841v0.841v0.841
		h-0.841v-0.841v-0.841v-0.841h-3.364v0.841v0.841v0.841h3.364v0.841h-3.364v0.841v0.841v0.841v0.841v0.841h-0.841v-0.841V16.592z"
		/>
	<path fill="#B1B0B3" d="M50.891,16.592V15.75V14.91v-0.841v-0.841v-0.841v-0.841v-0.841V9.864h0.841v0.841v0.841h0.841v0.841v0.841
		h1.682v0.841v0.841h-1.682v-0.841v-0.841h-0.841v0.841v0.841v0.841v0.841v0.841v0.841h-0.841v-0.841V16.592z M55.095,16.592V15.75
		V14.91v-0.841v-0.841h-0.841v-0.841v-0.841h0.841v-0.841V9.864h0.841v0.841v0.841v0.841v0.841v0.841v0.841v0.841v0.841v0.841v0.841
		h-0.841v-0.841V16.592z"/>
	<path fill="#B1B0B3" d="M57.618,17.433v-0.841V15.75V14.91v-0.841v-0.841v-0.841v-0.841v-0.841h0.841v0.841v0.841v0.841v0.841
		v0.841v0.841v0.841v0.841H57.618z M58.458,9.864h3.364v0.841h-3.364V9.864z M61.822,17.433v0.841h-3.364v-0.841H61.822z
		 M61.822,16.592V15.75V14.91v-0.841v-0.841v-0.841v-0.841v-0.841h0.841v0.841v0.841v0.841v0.841v0.841v0.841v0.841v0.841h-0.841
		V16.592z"/>
	<path fill="#B1B0B3" d="M64.345,10.705h0.841v0.841v0.841h-0.841v-0.841V10.705z M64.345,18.273v-0.841v-0.841V15.75h0.841v0.841
		v0.841h4.205v0.841H64.345z M65.186,9.864h3.364v0.841h-3.364V9.864z M65.186,14.91h0.841v0.841h-0.841V14.91z M66.027,14.069
		h0.841v0.841h-0.841V14.069z M66.868,13.228h1.682v0.841h-1.682V13.228z M68.549,12.387v-0.841v-0.841h0.841v0.841v0.841v0.841
		h-0.841V12.387z"/>
	<path fill="#B1B0B3" d="M71.072,16.592V15.75V14.91v-0.841v-0.841v-0.841v-0.841h0.841v0.841v0.841v0.841v0.841v0.841v0.841H71.072
		z M71.913,10.705h0.841v0.841h-0.841V10.705z M71.913,17.433v-0.841h0.841v0.841H71.913z M72.754,9.864h1.682v0.841h-1.682V9.864z
		 M74.436,17.433v0.841h-1.682v-0.841H74.436z M74.436,11.546v-0.841h0.841v0.841H74.436z M74.436,16.592h0.841v0.841h-0.841V16.592
		z M75.276,15.75V14.91v-0.841v-0.841v-0.841v-0.841h0.841v0.841v0.841v0.841v0.841v0.841v0.841h-0.841V15.75z"/>
	<path fill="#B1B0B3" d="M78.64,18.273v-0.841h1.682v-0.841V15.75V14.91v-0.841v-0.841v-0.841v-0.841h-0.841v0.841H78.64v-0.841
		h0.841v-0.841h0.841V9.864h0.841v0.841v0.841v0.841v0.841v0.841v0.841v0.841v0.841v0.841h1.682v0.841H78.64z"/>
	<path fill="#B1B0B3" d="M86.208,10.705v0.841h-0.841v0.841v0.841h3.364v0.841h0.841v0.841v0.841v0.841v0.841H88.73v-0.841V15.75
		V14.91v-0.841h-3.364v0.841v0.841v0.841v0.841h3.364v0.841h-3.364v-0.841h-0.841v-0.841V15.75V14.91v-0.841v-0.841v-0.841v-0.841
		h0.841v-0.841H86.208V9.864h2.522v0.841H86.208z"/>
</g>
<g>
	<rect x="42.313" y="6.5" fill="none" width="56.51" height="18.164"/>
	<path fill="#FFFFFF" d="M43.154,16.592V15.75V14.91v-0.841v-0.841v-0.841v-0.841v-0.841V9.864h4.205v0.841h0.841v0.841v0.841v0.841
		h-0.841v-0.841v-0.841v-0.841h-3.364v0.841v0.841v0.841h3.364v0.841h-3.364v0.841v0.841v0.841v0.841v0.841h-0.841v-0.841V16.592z"
		/>
	<path fill="#FFFFFF" d="M49.881,16.592V15.75V14.91v-0.841v-0.841v-0.841v-0.841v-0.841V9.864h0.841v0.841v0.841h0.841v0.841v0.841
		h1.682v0.841v0.841h-1.682v-0.841v-0.841h-0.841v0.841v0.841v0.841v0.841v0.841v0.841h-0.841v-0.841V16.592z M54.085,16.592V15.75
		V14.91v-0.841v-0.841h-0.841v-0.841v-0.841h0.841v-0.841V9.864h0.841v0.841v0.841v0.841v0.841v0.841v0.841v0.841v0.841v0.841v0.841
		h-0.841v-0.841V16.592z"/>
	<path fill="#FFFFFF" d="M56.608,17.433v-0.841V15.75V14.91v-0.841v-0.841v-0.841v-0.841v-0.841h0.841v0.841v0.841v0.841v0.841
		v0.841v0.841v0.841v0.841H56.608z M57.449,9.864h3.364v0.841h-3.364V9.864z M60.813,17.433v0.841h-3.364v-0.841H60.813z
		 M60.813,16.592V15.75V14.91v-0.841v-0.841v-0.841v-0.841v-0.841h0.841v0.841v0.841v0.841v0.841v0.841v0.841v0.841v0.841h-0.841
		V16.592z"/>
	<path fill="#FFFFFF" d="M63.335,10.705h0.841v0.841v0.841h-0.841v-0.841V10.705z M63.335,18.273v-0.841v-0.841V15.75h0.841v0.841
		v0.841h4.205v0.841H63.335z M64.176,9.864h3.364v0.841h-3.364V9.864z M64.176,14.91h0.841v0.841h-0.841V14.91z M65.017,14.069
		h0.841v0.841h-0.841V14.069z M65.858,13.228h1.682v0.841h-1.682V13.228z M67.54,12.387v-0.841v-0.841h0.841v0.841v0.841v0.841
		H67.54V12.387z"/>
	<path fill="#FFFFFF" d="M70.062,16.592V15.75V14.91v-0.841v-0.841v-0.841v-0.841h0.841v0.841v0.841v0.841v0.841v0.841v0.841H70.062
		z M70.903,10.705h0.841v0.841h-0.841V10.705z M70.903,17.433v-0.841h0.841v0.841H70.903z M71.744,9.864h1.682v0.841h-1.682V9.864z
		 M73.426,17.433v0.841h-1.682v-0.841H73.426z M73.426,11.546v-0.841h0.841v0.841H73.426z M73.426,16.592h0.841v0.841h-0.841V16.592
		z M74.267,15.75V14.91v-0.841v-0.841v-0.841v-0.841h0.841v0.841v0.841v0.841v0.841v0.841v0.841h-0.841V15.75z"/>
	<path fill="#FFFFFF" d="M77.63,18.273v-0.841h1.682v-0.841V15.75V14.91v-0.841v-0.841v-0.841v-0.841h-0.841v0.841H77.63v-0.841
		h0.841v-0.841h0.841V9.864h0.841v0.841v0.841v0.841v0.841v0.841v0.841v0.841v0.841v0.841h1.682v0.841H77.63z"/>
	<path fill="#FFFFFF" d="M85.198,10.705v0.841h-0.841v0.841v0.841h3.364v0.841h0.841v0.841v0.841v0.841v0.841h-0.841v-0.841V15.75
		V14.91v-0.841h-3.364v0.841v0.841v0.841v0.841h3.364v0.841h-3.364v-0.841h-0.841v-0.841V15.75V14.91v-0.841v-0.841v-0.841v-0.841
		h0.841v-0.841H85.198V9.864h2.522v0.841H85.198z"/>
</g>
<rect x="56.333" y="263" fill="#2C2E3A" width="27" height="71"/>
<rect x="34.333" y="285" fill="#2C2E3A" width="71" height="27"/>
<circle fill="#B12768" cx="250.119" cy="288.071" r="14.572"/>
<circle fill="#B12768" cx="214.904" cy="309.929" r="14.571"/>
<path fill="#64687C" d="M131.357,355.098c0.605,2.123-0.626,4.337-2.75,4.941l-23.572,6.717c-2.125,0.605-4.337-0.627-4.943-2.752
	l0,0c-0.605-2.123,0.626-4.337,2.75-4.941l23.572-6.717C128.539,351.74,130.752,352.973,131.357,355.098L131.357,355.098z"/>
<path fill="#64687C" d="M172.466,355.098c0.605,2.123-0.627,4.337-2.751,4.941l-23.571,6.717c-2.125,0.605-4.338-0.627-4.943-2.752
	l0,0c-0.605-2.123,0.627-4.337,2.75-4.941l23.572-6.717C169.647,351.74,171.86,352.973,172.466,355.098L172.466,355.098z"/>
<g>
	
		<rect x="145.894" y="360.911" transform="matrix(0.9588 -0.284 0.284 0.9588 -97.6828 62.0468)" fill="none" width="38.5" height="13.998"/>
	<path fill="#414567" d="M147.214,372.733l-0.146-0.495l-0.146-0.494l-0.146-0.494l0.659-0.195l0.146,0.494l0.146,0.494l0.146,0.495
		L147.214,372.733z M147.287,370.561l2.637-0.781l0.146,0.494l-2.637,0.781L147.287,370.561z M147.946,375.205l-0.146-0.494
		l-0.146-0.495l0.659-0.195l0.146,0.495l0.146,0.494L147.946,375.205z M148.02,373.032l-0.146-0.494l1.318-0.391l0.146,0.494
		L148.02,373.032z M151.242,374.229l0.146,0.494l-2.637,0.781l-0.146-0.494L151.242,374.229z M149.484,373.136l-0.146-0.494
		l1.318-0.391l0.146,0.494L149.484,373.136z M150.07,370.273l0.659-0.195l0.146,0.494l0.146,0.494l-0.659,0.195l-0.146-0.494
		L150.07,370.273z M151.096,373.734l-0.146-0.495l-0.146-0.494l0.659-0.195l0.146,0.494l0.146,0.495l0.146,0.494l-0.659,0.195
		L151.096,373.734z"/>
	<path fill="#414567" d="M154.685,368.906l0.146,0.495l0.146,0.494l0.146,0.494l0.146,0.494l0.146,0.495l0.146,0.494l0.146,0.494
		l0.146,0.495l0.146,0.494l-0.659,0.195l-0.146-0.494l-0.146-0.495l-0.146-0.494l-0.146-0.494l-0.146-0.495l-0.146-0.494
		l-0.146-0.494l-0.146-0.494l-0.146-0.495l-1.978,0.586l-0.146-0.494l4.614-1.367l0.146,0.494L154.685,368.906z"/>
	<path fill="#414567" d="M158.347,371.586l-0.146-0.494l-0.146-0.494l-0.146-0.495l-0.146-0.494l-0.146-0.494l0.66-0.195
		l0.146,0.494l0.146,0.494l2.637-0.78l-0.146-0.494l-0.146-0.495l0.658-0.195l0.146,0.495l0.146,0.494l0.146,0.494l0.146,0.494
		l0.146,0.495l0.146,0.494l0.146,0.494l-0.659,0.195l-0.146-0.494l-0.146-0.494l-0.146-0.495l-0.146-0.494l-2.637,0.781l0.146,0.494
		l0.146,0.494l0.146,0.495l0.146,0.494l-0.659,0.195l-0.146-0.494L158.347,371.586z M158.128,368.425l-0.146-0.495l0.658-0.194
		l0.146,0.494l0.146,0.494l-0.658,0.195L158.128,368.425z M158.493,367.241l1.318-0.391l0.146,0.494l-1.318,0.391L158.493,367.241z
		 M160.251,368.333l-0.146-0.494l-0.146-0.494l0.66-0.195l0.146,0.494l0.146,0.494L160.251,368.333z"/>
	<path fill="#414567" d="M163.62,370.024l-0.146-0.495l-0.146-0.494l-0.146-0.494l-0.146-0.494l-0.146-0.495l-0.146-0.494
		l-0.146-0.494l-0.146-0.494l3.297-0.977l0.146,0.494l0.658-0.195l0.146,0.495l0.146,0.494l0.146,0.494l-0.658,0.195l-0.146-0.494
		l-0.146-0.494l-0.146-0.495l-2.637,0.781l0.146,0.494l0.146,0.494l0.146,0.495l2.637-0.781l0.146,0.494l-0.659,0.195l0.146,0.495
		l0.659-0.195l0.146,0.494l0.146,0.494l0.659-0.195l0.146,0.495l0.146,0.494l-0.659,0.195l-0.146-0.494l-0.146-0.495l-0.659,0.195
		l-0.146-0.494l-0.146-0.494l-0.659,0.194l-0.146-0.494l-1.318,0.391l0.146,0.494l0.146,0.494l0.146,0.495l0.146,0.494l0.146,0.494
		l-0.659,0.195l-0.146-0.494L163.62,370.024z"/>
	<path fill="#414567" d="M170.505,364.22l0.146,0.495l0.146,0.494l0.146,0.494l0.146,0.494l0.146,0.495l0.146,0.494l0.146,0.494
		l0.146,0.495l0.146,0.494l-0.659,0.195l-0.146-0.494l-0.146-0.495l-0.146-0.494l-0.146-0.494l-0.146-0.495l-0.146-0.494
		l-0.146-0.494l-0.146-0.494l-0.146-0.495l-1.979,0.586l-0.146-0.494l4.615-1.366l0.146,0.494L170.505,364.22z"/>
</g>
<g>
	
		<rect x="102.095" y="361.912" transform="matrix(0.9588 -0.284 0.284 0.9588 -99.7727 49.6508)" fill="none" width="38.499" height="13.999"/>
	<path fill="#414567" d="M103.414,373.733l-0.146-0.494l-0.146-0.494l-0.146-0.495l0.66-0.195l0.146,0.495l0.146,0.494l0.146,0.494
		L103.414,373.733z M103.488,371.561l2.636-0.78l0.146,0.494l-2.636,0.78L103.488,371.561z M104.146,376.206L104,375.711
		l-0.146-0.494l0.659-0.195l0.146,0.494l0.146,0.495L104.146,376.206z M104.22,374.032l-0.146-0.494l1.318-0.39l0.146,0.494
		L104.22,374.032z M107.442,375.229l0.146,0.494l-2.637,0.781l-0.146-0.494L107.442,375.229z M105.685,374.137l-0.146-0.494
		l1.318-0.391l0.146,0.494L105.685,374.137z M106.271,371.274l0.659-0.195l0.146,0.494l0.146,0.494l-0.659,0.195l-0.146-0.494
		L106.271,371.274z M107.296,374.735l-0.146-0.495l-0.146-0.494l0.659-0.195l0.146,0.494l0.146,0.495l0.146,0.494l-0.659,0.195
		L107.296,374.735z"/>
	<path fill="#414567" d="M109.566,375.138l-0.146-0.494l-0.146-0.494l-0.146-0.495l-0.146-0.494l-0.146-0.494l-0.146-0.494
		l-0.146-0.495l-0.146-0.494l-0.146-0.494l-0.146-0.494l3.955-1.172l0.146,0.494l-3.296,0.977l0.146,0.495l0.146,0.494l0.146,0.494
		l2.637-0.781l0.146,0.494l-2.637,0.781l0.146,0.495l0.146,0.494l0.146,0.494l0.146,0.495l3.296-0.977l0.146,0.494L109.566,375.138z
		"/>
	<path fill="#414567" d="M114.84,373.576l-0.146-0.494l-0.146-0.495l-0.146-0.494l-0.146-0.494l-0.146-0.495l-0.146-0.494
		l-0.146-0.494l-0.146-0.494l-0.146-0.495l-0.146-0.494l0.66-0.195l0.146,0.494l0.146,0.495l0.146,0.494l0.146,0.494l0.146,0.494
		l0.146,0.495l0.146,0.494l0.146,0.494l0.146,0.495l3.296-0.977l0.146,0.494L114.84,373.576z"/>
	<path fill="#414567" d="M120.113,372.014l-0.146-0.494l-0.146-0.494l-0.146-0.495l-0.146-0.494l-0.146-0.494l-0.146-0.494
		l-0.146-0.495l-0.146-0.494l-0.146-0.494l-0.146-0.494l3.955-1.172l0.146,0.494l-3.295,0.977l0.146,0.494l0.146,0.494l0.146,0.495
		l2.637-0.781l0.146,0.494l-2.637,0.781l0.146,0.494l0.146,0.494l0.146,0.495l0.146,0.494l3.296-0.976l0.146,0.494L120.113,372.014z
		"/>
	<path fill="#414567" d="M125.24,369.958l-0.146-0.495l-0.146-0.494l-0.146-0.494l-0.146-0.495l-0.146-0.494l-0.146-0.494
		l-0.146-0.494l-0.146-0.495l0.66-0.195l0.146,0.495l0.146,0.494l0.146,0.494l0.146,0.494l0.146,0.495l0.146,0.494l0.146,0.494
		l0.146,0.495L125.24,369.958z M124.582,365.313l2.637-0.78l0.146,0.494l-2.637,0.78L124.582,365.313z M128.536,368.981l0.146,0.494
		l-2.637,0.781l-0.146-0.494L128.536,368.981z M127.365,365.026l0.658-0.195l0.146,0.494l0.146,0.494l-0.658,0.195l-0.146-0.494
		L127.365,365.026z M128.39,368.487l-0.146-0.495l0.659-0.195l0.146,0.495l0.146,0.494l-0.659,0.195L128.39,368.487z"/>
	<path fill="#414567" d="M131.979,363.659l0.146,0.494l0.146,0.494l0.146,0.495l0.146,0.494l0.146,0.494l0.146,0.494l0.146,0.495
		l0.146,0.494l0.146,0.494l-0.659,0.195l-0.146-0.494l-0.146-0.494l-0.146-0.495l-0.146-0.494l-0.146-0.494l-0.146-0.494
		l-0.146-0.495l-0.146-0.494l-0.146-0.494l-1.979,0.586l-0.146-0.494l4.615-1.367l0.146,0.494L131.979,363.659z"/>
</g>
<path fill="#64687C" d="M269.833,201.5c0,26.5-16,32.5-45,32.5h-189c-6.627,0-12-5.373-12-12V60.5c0-6.627,5.373-12,12-12h222
	c6.627,0,12,5.373,12,12V201.5z"/>
<circle fill="#940050" cx="41.083" cy="117.25" r="3.25"/>
<g>
	<rect x="32.833" y="125" fill="none" width="36.5" height="13.5"/>
	<path fill="#FFFFFF" d="M33.333,131v-0.5V130v-0.5V129v-0.5V128v-0.5V127h2.5v0.5h0.5v0.5v0.5v0.5h-0.5v-0.5V128v-0.5h-2v0.5v0.5
		v0.5h2v0.5h0.5v0.5v0.5v0.5v0.5h-0.5V131v-0.5V130v-0.5h-2v0.5v0.5v0.5v0.5h2v0.5h-2.5v-0.5V131z"/>
	<path fill="#FFFFFF" d="M37.333,131v-0.5V130v-0.5V129v-0.5h0.5v0.5v0.5h2V129v-0.5h0.5v0.5v0.5v0.5v0.5v0.5v0.5v0.5h-0.5v-0.5V131
		v-0.5V130h-2v0.5v0.5v0.5v0.5h-0.5v-0.5V131z M37.833,128v-0.5h0.5v0.5v0.5h-0.5V128z M38.333,127h1v0.5h-1V127z M39.333,128.5V128
		v-0.5h0.5v0.5v0.5H39.333z"/>
	<path fill="#FFFFFF" d="M43.333,127.5v0.5v0.5v0.5v0.5v0.5v0.5v0.5v0.5v0.5h-0.5v-0.5V131v-0.5V130v-0.5V129v-0.5V128v-0.5h-1.5
		V127h3.5v0.5H43.333z"/>
	<path fill="#FFFFFF" d="M47.333,127.5v0.5v0.5v0.5v0.5v0.5v0.5v0.5v0.5v0.5h-0.5v-0.5V131v-0.5V130v-0.5V129v-0.5V128v-0.5h-1.5
		V127h3.5v0.5H47.333z"/>
	<path fill="#FFFFFF" d="M49.333,132v-0.5V131v-0.5V130v-0.5V129v-0.5V128v-0.5V127h3v0.5h-2.5v0.5v0.5v0.5h2v0.5h-2v0.5v0.5v0.5
		v0.5h2.5v0.5H49.333z"/>
	<path fill="#FFFFFF" d="M53.333,131v-0.5V130v-0.5V129v-0.5V128v-0.5V127h2.5v0.5h0.5v0.5v0.5v0.5h-0.5v-0.5V128v-0.5h-2v0.5v0.5
		v0.5h2v0.5h-0.5v0.5h0.5v0.5v0.5h0.5v0.5v0.5h-0.5v-0.5V131h-0.5v-0.5V130h-0.5v-0.5h-1v0.5v0.5v0.5v0.5v0.5h-0.5v-0.5V131z"/>
	<path fill="#FFFFFF" d="M57.333,128v-0.5V127h0.5v0.5v0.5H57.333z M57.833,129v-0.5V128h0.5v0.5v0.5H57.833z M58.333,129.5V129h0.5
		v0.5H58.333z M58.833,131v-0.5V130v-0.5h0.5v0.5v0.5v0.5v0.5v0.5h-0.5v-0.5V131z M59.333,129h0.5v0.5h-0.5V129z M59.833,128.5V128
		h0.5v0.5v0.5h-0.5V128.5z M60.333,127.5V127h0.5v0.5v0.5h-0.5V127.5z"/>
</g>
<rect x="67.333" y="69" width="160" height="144"/>
<g>
	
		<rect x="255.085" y="295.498" transform="matrix(0.848 -0.5299 0.5299 0.848 -120.953 183.4883)" fill="none" width="8.75" height="14.286"/>
	<path fill="#414567" d="M259.436,308.974l-0.396-0.636l-0.398-0.637l-0.396-0.636l-0.398-0.636l-0.396-0.637l0.848-0.529
		l0.396,0.636l0.398,0.636l3.393-2.119l-0.398-0.637l-0.396-0.635l0.848-0.53l0.396,0.636l0.398,0.637l0.396,0.635l0.398,0.637
		l0.396,0.637l0.398,0.635l0.396,0.637l-0.848,0.529l-0.398-0.636l-0.396-0.636l-0.396-0.637l-0.398-0.636l-3.393,2.12l0.398,0.636
		l0.396,0.636l0.398,0.637l0.396,0.636l-0.848,0.53l-0.398-0.637L259.436,308.974z M257.898,304.627l-0.396-0.636l0.848-0.53
		l0.398,0.637l0.396,0.637l-0.848,0.529L257.898,304.627z M257.953,302.826l1.695-1.061l0.396,0.636l-1.695,1.06L257.953,302.826z
		 M260.84,303.674l-0.396-0.637l-0.398-0.636l0.85-0.53l0.396,0.637l0.398,0.637L260.84,303.674z"/>
</g>
<g>
	
		<rect x="222.432" y="316.465" transform="matrix(0.8481 -0.5299 0.5299 0.8481 -139.3383 172.0367)" fill="none" width="15.803" height="25.072"/>
	<path fill="#414567" d="M224.461,332.627l-0.396-0.637l-0.398-0.636l-0.396-0.636l-0.398-0.637l-0.396-0.635l-0.398-0.637
		l-0.396-0.637l-0.398-0.635l4.24-2.65l0.398,0.637l0.848-0.53l0.396,0.636l0.398,0.637l0.396,0.636l-0.848,0.53l-0.396-0.637
		l-0.398-0.636l-0.396-0.636l-3.393,2.119l0.396,0.637l0.398,0.636l0.396,0.636l3.393-2.119l0.398,0.636l0.848-0.53l0.396,0.637
		l0.398,0.636l0.396,0.636l0.398,0.637l-0.85,0.529l-0.396-0.636l-0.396-0.636l-0.398-0.637l-0.396-0.636l-3.393,2.12l0.396,0.635
		l0.398,0.637l0.396,0.637l0.398,0.635l3.391-2.119l0.398,0.637l-4.24,2.648l-0.398-0.636L224.461,332.627z"/>
</g>
<g>
</g>
<g>
</g>
<g>
</g>
<g>
</g>
<g>
</g>
<g>
</g>
<g>
</g>
<g>
</g>
<g>
</g>
<g>
</g>
<g>
</g>
<g>
</g>
<g>
</g>
<g>
</g>
<g>
</g>
</svg>
