<?xml version="1.0" encoding="utf-8"?>
<!-- Generator: Adobe Illustrator 16.0.0, SVG Export Plug-In . SVG Version: 6.00 Build 0)  -->
<!DOCTYPE svg PUBLIC "-//W3C//DTD SVG 1.1//EN" "http://www.w3.org/Graphics/SVG/1.1/DTD/svg11.dtd">
<svg version="1.1" id="图层_2" xmlns="http://www.w3.org/2000/svg" xmlns:xlink="http://www.w3.org/1999/xlink" x="0px" y="0px"
	 width="14px" height="16px" viewBox="0.501 0 14 16" enable-background="new 0.501 0 14 16" xml:space="preserve">
<rect x="5.501" y="13" fill="#A8A8A8" width="4" height="2"/>
<rect x="3.501" y="1" fill="#A8A8A8" width="8" height="5"/>
<rect x="9.501" y="4" fill="#F8F8F8" width="4" height="1"/>
<rect x="10.501" y="3" fill="#F8F8F8" width="1" height="1"/>
<rect x="4.501" y="6" fill="#F8F8F8" width="7" height="3"/>
<rect x="6.501" y="9" fill="#F8F8F8" width="3" height="1"/>
<rect x="9.501" y="6" width="1" height="2"/>
<rect x="6.501" y="6" width="1" height="2"/>
<rect x="4.501" y="6" width="2" height="1"/>
<rect x="4.501" y="5" width="4" height="1"/>
<rect x="1.501" y="4" width="3" height="3"/>
<rect x="2.501" y="7" width="2" height="1"/>
<rect x="3.501" y="8" width="1" height="1"/>
<rect x="2.501" y="2" width="1" height="2"/>
<rect x="4.501" y="9" width="2" height="1"/>
<rect x="2.501" y="9" width="1" height="4"/>
<rect x="3.501" y="1" width="1" height="1"/>
<rect x="4.501" y="0" width="6" height="1"/>
<rect x="10.501" y="1" width="1" height="1"/>
<rect x="11.501" y="2" width="1" height="2"/>
<rect x="12.501" y="3" width="1" height="1"/>
<rect x="13.501" y="4" width="1" height="1"/>
<rect x="11.501" y="5" width="2" height="1"/>
<rect x="11.501" y="6" width="1" height="3"/>
<rect x="10.501" y="9" width="1" height="1"/>
<rect x="9.501" y="9" fill="#A8A8A8" width="1" height="1"/>
<rect x="3.501" y="9" fill="#A8A8A8" width="1" height="4"/>
<rect x="4.501" y="10" fill="#A8A8A8" width="1" height="1"/>
<rect x="5.501" y="9.998" width="5" height="1"/>
<rect x="7.501" y="10.998" width="2" height="2.002"/>
<rect x="5.501" y="11" fill="#F8F8F8" width="2" height="2"/>
<rect x="4.501" y="11" width="1" height="4"/>
<rect x="3.501" y="13" width="4" height="1"/>
<rect x="9.501" y="13" width="1" height="2"/>
<rect x="5.501" y="15" width="4" height="1"/>
</svg>
