<?xml version="1.0" encoding="utf-8"?>
<!-- Generator: Adobe Illustrator 16.0.0, SVG Export Plug-In . SVG Version: 6.00 Build 0)  -->
<!DOCTYPE svg PUBLIC "-//W3C//DTD SVG 1.1//EN" "http://www.w3.org/Graphics/SVG/1.1/DTD/svg11.dtd">
<svg version="1.1" xmlns="http://www.w3.org/2000/svg" xmlns:xlink="http://www.w3.org/1999/xlink" x="0px" y="0px" width="14px"
	 height="16px" viewBox="0 0 14 16" enable-background="new 0 0 14 16" xml:space="preserve">
<g id="图层_1" display="none">
	<line id="XMLID_100_" display="inline" fill="none" stroke="#000000" stroke-miterlimit="10" x1="7" y1="1.5" x2="9" y2="1.5"/>
	<line id="XMLID_99_" display="inline" fill="none" stroke="#000000" stroke-miterlimit="10" x1="6" y1="1.5" x2="7" y2="1.5"/>
	<line id="XMLID_98_" display="inline" fill="none" stroke="#000000" stroke-miterlimit="10" x1="5" y1="1.5" x2="6" y2="1.5"/>
	<line id="XMLID_97_" display="inline" fill="none" stroke="#000000" stroke-miterlimit="10" x1="4" y1="1.5" x2="5" y2="1.5"/>
	<line id="XMLID_96_" display="inline" fill="none" stroke="#000000" stroke-miterlimit="10" x1="11" y1="2.5" x2="10" y2="2.5"/>
	<line id="XMLID_95_" display="inline" fill="none" stroke="#000000" stroke-miterlimit="10" x1="12" y1="3.5" x2="11" y2="3.5"/>
	<line id="XMLID_94_" display="inline" fill="none" stroke="#000000" stroke-miterlimit="10" x1="3" y1="2.5" x2="4" y2="2.5"/>
	<line id="XMLID_93_" display="inline" fill="none" stroke="#000000" stroke-miterlimit="10" x1="2" y1="3.5" x2="3" y2="3.5"/>
	<line id="XMLID_92_" display="inline" fill="none" stroke="#000000" stroke-miterlimit="10" x1="11.5" y1="6" x2="11.5" y2="5"/>
	<line id="XMLID_91_" display="inline" fill="none" stroke="#000000" stroke-miterlimit="10" x1="2.5" y1="6" x2="2.5" y2="5"/>
	<line id="XMLID_90_" display="inline" fill="none" stroke="#000000" stroke-miterlimit="10" x1="11" y1="5.5" x2="11" y2="5.5"/>
	<line id="XMLID_89_" display="inline" fill="none" stroke="#000000" stroke-miterlimit="10" x1="11" y1="5.5" x2="10" y2="5.5"/>
	<line id="XMLID_88_" display="inline" fill="none" stroke="#000000" stroke-miterlimit="10" x1="4" y1="5.5" x2="3" y2="5.5"/>
	<line id="XMLID_87_" display="inline" fill="none" stroke="#000000" stroke-miterlimit="10" x1="4" y1="6.5" x2="9" y2="6.5"/>
	<line id="XMLID_86_" display="inline" fill="none" stroke="#000000" stroke-miterlimit="10" x1="10" y1="1.5" x2="9" y2="1.5"/>
	<line id="XMLID_85_" display="inline" fill="none" stroke="#000000" stroke-miterlimit="10" x1="10" y1="6.5" x2="9" y2="6.5"/>
	<line id="XMLID_84_" display="inline" fill="none" stroke="#000000" stroke-miterlimit="10" x1="11.5" y1="5" x2="11.5" y2="4"/>
	<line id="XMLID_83_" display="inline" fill="none" stroke="#000000" stroke-miterlimit="10" x1="2.5" y1="5" x2="2.5" y2="4"/>
	<line id="XMLID_82_" display="inline" fill="none" stroke="#000000" stroke-miterlimit="10" x1="13" y1="5.5" x2="12" y2="5.5"/>
	<line id="XMLID_81_" display="inline" fill="none" stroke="#000000" stroke-miterlimit="10" x1="12.5" y1="7" x2="12.5" y2="6"/>
	<line id="XMLID_80_" display="inline" fill="none" stroke="#000000" stroke-miterlimit="10" x1="11" y1="6.5" x2="12" y2="6.5"/>
	<line id="XMLID_79_" display="inline" fill="none" stroke="#000000" stroke-miterlimit="10" x1="11.5" y1="8" x2="11.5" y2="7"/>
	<line id="XMLID_78_" display="inline" fill="none" stroke="#000000" stroke-miterlimit="10" x1="13.5" y1="9" x2="13.5" y2="8"/>
	<line id="XMLID_77_" display="inline" fill="none" stroke="#000000" stroke-miterlimit="10" x1="13.5" y1="8" x2="13.5" y2="8"/>
	<line id="XMLID_76_" display="inline" fill="none" stroke="#000000" stroke-miterlimit="10" x1="13.5" y1="8" x2="13.5" y2="8"/>
	<line id="XMLID_75_" display="inline" fill="none" stroke="#000000" stroke-miterlimit="10" x1="13.5" y1="7" x2="13.5" y2="9"/>
	<line id="XMLID_74_" display="inline" fill="none" stroke="#000000" stroke-miterlimit="10" x1="11" y1="9.5" x2="13" y2="9.5"/>
	<line id="XMLID_73_" display="inline" fill="none" stroke="#000000" stroke-miterlimit="10" x1="2" y1="5.5" x2="3" y2="5.5"/>
	<line id="XMLID_72_" display="inline" fill="none" stroke="#000000" stroke-miterlimit="10" x1="2.5" y1="8" x2="2.5" y2="6"/>
	<line id="XMLID_71_" display="inline" fill="none" stroke="#000000" stroke-miterlimit="10" x1="2" y1="5.5" x2="3" y2="5.5"/>
	<line id="XMLID_70_" display="inline" fill="none" stroke="#000000" stroke-miterlimit="10" x1="1.5" y1="7" x2="1.5" y2="6"/>
	<line id="XMLID_69_" display="inline" fill="none" stroke="#000000" stroke-miterlimit="10" x1="1.5" y1="6" x2="1.5" y2="5"/>
	<line id="XMLID_68_" display="inline" fill="none" stroke="#000000" stroke-miterlimit="10" x1="0.5" y1="9" x2="0.5" y2="7"/>
	<line id="XMLID_67_" display="inline" fill="none" stroke="#000000" stroke-miterlimit="10" x1="3" y1="9.5" x2="1" y2="9.5"/>
	<line id="XMLID_66_" display="inline" fill="none" stroke="#000000" stroke-miterlimit="10" x1="10" y1="10.5" x2="11" y2="10.5"/>
	<line id="XMLID_65_" display="inline" fill="none" stroke="#000000" stroke-miterlimit="10" x1="4" y1="10.5" x2="2" y2="10.5"/>
	<line id="XMLID_64_" display="inline" fill="none" stroke="#000000" stroke-miterlimit="10" x1="1" y1="11.5" x2="10" y2="11.5"/>
	<line id="XMLID_63_" display="inline" fill="none" stroke="#000000" stroke-miterlimit="10" x1="8.5" y1="10" x2="8.5" y2="8"/>
	<line id="XMLID_62_" display="inline" fill="none" stroke="#000000" stroke-miterlimit="10" x1="5.5" y1="10" x2="5.5" y2="8"/>
	<line id="XMLID_61_" display="inline" fill="none" stroke="#000000" stroke-miterlimit="10" x1="13" y1="10.5" x2="12" y2="10.5"/>
	<line id="XMLID_60_" display="inline" fill="none" stroke="#F8F8F8" stroke-miterlimit="10" x1="1" y1="10.5" x2="2" y2="10.5"/>
	<line id="XMLID_59_" display="inline" fill="none" stroke="#000000" stroke-miterlimit="10" x1="10.5" y1="12" x2="10.5" y2="11"/>
	<line id="XMLID_57_" display="inline" fill="none" stroke="#000000" stroke-miterlimit="10" x1="13" y1="10.5" x2="12" y2="10.5"/>
	
		<line id="XMLID_56_" display="inline" fill="none" stroke="#000000" stroke-miterlimit="10" x1="12.5" y1="12.1" x2="12.5" y2="11"/>
	<line id="XMLID_55_" display="inline" fill="none" stroke="#000000" stroke-miterlimit="10" x1="11" y1="12.5" x2="13" y2="12.5"/>
	<line id="XMLID_53_" display="inline" fill="none" stroke="#000000" stroke-miterlimit="10" x1="11" y1="13.5" x2="11" y2="13.5"/>
	<line id="XMLID_52_" display="inline" fill="none" stroke="#000000" stroke-miterlimit="10" x1="9" y1="13.5" x2="8" y2="13.5"/>
	<line id="XMLID_51_" display="inline" fill="none" stroke="#000000" stroke-miterlimit="10" x1="5" y1="12.5" x2="9" y2="12.5"/>
	<line id="XMLID_50_" display="inline" fill="none" stroke="#000000" stroke-miterlimit="10" x1="2" y1="12.5" x2="4" y2="12.5"/>
	<line id="XMLID_49_" display="inline" fill="none" stroke="#000000" stroke-miterlimit="10" x1="0.5" y1="11" x2="0.5" y2="9"/>
	<line id="XMLID_47_" display="inline" fill="none" stroke="#000000" stroke-miterlimit="10" x1="7.5" y1="14" x2="7.5" y2="14"/>
	<line id="XMLID_44_" display="inline" fill="none" stroke="#000000" stroke-miterlimit="10" x1="9" y1="14.5" x2="11" y2="14.5"/>
	<line id="XMLID_43_" display="inline" fill="none" stroke="#000000" stroke-miterlimit="10" x1="4" y1="13.5" x2="6" y2="13.5"/>
	<line id="XMLID_42_" display="inline" fill="none" stroke="#000000" stroke-miterlimit="10" x1="6" y1="14.5" x2="8" y2="14.5"/>
	<line id="XMLID_41_" display="inline" fill="none" stroke="#000000" stroke-miterlimit="10" x1="11.5" y1="14" x2="11.5" y2="13"/>
	<line id="XMLID_39_" display="inline" fill="none" stroke="#000000" stroke-miterlimit="10" x1="4" y1="15.5" x2="7" y2="15.5"/>
	<line id="XMLID_37_" display="inline" fill="none" stroke="#000000" stroke-miterlimit="10" x1="3.5" y1="15" x2="3.5" y2="13"/>
	<line id="XMLID_36_" display="inline" fill="none" stroke="#A8A8A8" stroke-miterlimit="10" x1="8" y1="10.5" x2="6" y2="10.5"/>
	<line id="XMLID_35_" display="inline" fill="none" stroke="#A8A8A8" stroke-miterlimit="10" x1="11" y1="3.5" x2="3" y2="3.5"/>
	<line id="XMLID_34_" display="inline" fill="none" stroke="#A8A8A8" stroke-miterlimit="10" x1="11" y1="4.5" x2="3" y2="4.5"/>
	<line id="XMLID_33_" display="inline" fill="none" stroke="#A8A8A8" stroke-miterlimit="10" x1="10" y1="2.5" x2="4" y2="2.5"/>
	<line id="XMLID_32_" display="inline" fill="none" stroke="#A8A8A8" stroke-miterlimit="10" x1="9.5" y1="6" x2="9.5" y2="5"/>
	<line id="XMLID_31_" display="inline" fill="none" stroke="#A8A8A8" stroke-miterlimit="10" x1="4.5" y1="6" x2="4.5" y2="5"/>
	
		<line id="XMLID_27_" display="inline" fill="none" stroke="#808080" stroke-miterlimit="10" x1="7.5" y1="14.5" x2="7.5" y2="14.5"/>
	<line id="XMLID_26_" display="inline" fill="none" stroke="#A8A8A8" stroke-miterlimit="10" x1="6" y1="13.5" x2="8" y2="13.5"/>
	<line id="XMLID_23_" display="inline" fill="none" stroke="#A8A8A8" stroke-miterlimit="10" x1="4" y1="14.5" x2="6" y2="14.5"/>
	<line id="XMLID_20_" display="inline" fill="none" stroke="#F8F8F8" stroke-miterlimit="10" x1="12.5" y1="8" x2="12.5" y2="7"/>
	<line id="XMLID_19_" display="inline" fill="none" stroke="#F2F2F2" stroke-miterlimit="10" x1="12.5" y1="9" x2="12.5" y2="8"/>
	<line id="XMLID_18_" display="inline" fill="none" stroke="#F8F8F8" stroke-miterlimit="10" x1="10" y1="8.5" x2="13" y2="8.5"/>
	<line id="XMLID_17_" display="inline" fill="none" stroke="#F8F8F8" stroke-miterlimit="10" x1="9" y1="8.5" x2="10" y2="8.5"/>
	<line id="XMLID_16_" display="inline" fill="none" stroke="#F8F8F8" stroke-miterlimit="10" x1="6" y1="8.5" x2="8" y2="8.5"/>
	<line id="XMLID_15_" display="inline" fill="none" stroke="#F8F8F8" stroke-miterlimit="10" x1="6" y1="9.5" x2="8" y2="9.5"/>
	<line id="XMLID_14_" display="inline" fill="none" stroke="#F8F8F8" stroke-miterlimit="10" x1="4" y1="10.5" x2="6" y2="10.5"/>
	<line id="XMLID_13_" display="inline" fill="none" stroke="#F8F8F8" stroke-miterlimit="10" x1="3" y1="9.5" x2="5" y2="9.5"/>
	<line id="XMLID_12_" display="inline" fill="none" stroke="#F8F8F8" stroke-miterlimit="10" x1="1" y1="8.5" x2="5" y2="8.5"/>
	<line id="XMLID_11_" display="inline" fill="none" stroke="#F8F8F8" stroke-miterlimit="10" x1="1" y1="7.5" x2="2" y2="7.5"/>
	<line id="XMLID_10_" display="inline" fill="none" stroke="#F8F8F8" stroke-miterlimit="10" x1="3" y1="7.5" x2="11" y2="7.5"/>
	<line id="XMLID_9_" display="inline" fill="none" stroke="#000000" stroke-miterlimit="10" x1="10" y1="6.5" x2="11" y2="6.5"/>
	<line id="XMLID_8_" display="inline" fill="none" stroke="#000000" stroke-miterlimit="10" x1="3" y1="6.5" x2="4" y2="6.5"/>
	<line id="XMLID_7_" display="inline" fill="none" stroke="#F8F8F8" stroke-miterlimit="10" x1="9" y1="9.5" x2="11" y2="9.5"/>
	<line id="XMLID_6_" display="inline" fill="none" stroke="#F8F8F8" stroke-miterlimit="10" x1="8" y1="10.5" x2="10" y2="10.5"/>
	<line id="XMLID_5_" display="inline" fill="none" stroke="#F8F8F8" stroke-miterlimit="10" x1="11" y1="11.5" x2="12" y2="11.5"/>
	<line id="XMLID_4_" display="inline" fill="none" stroke="#A8A8A8" stroke-miterlimit="10" x1="11" y1="10.5" x2="12" y2="10.5"/>
	<line id="XMLID_113_" display="inline" fill="none" stroke="#F8F8F8" stroke-miterlimit="10" x1="5" y1="5.5" x2="9" y2="5.5"/>
	<line id="XMLID_3_" display="inline" fill="none" stroke="#F8F8F8" stroke-miterlimit="10" x1="9" y1="12.5" x2="11" y2="12.5"/>
	<line id="XMLID_2_" display="inline" fill="none" stroke="#F8F8F8" stroke-miterlimit="10" x1="9" y1="13.5" x2="11" y2="13.5"/>
	<line id="XMLID_21_" display="inline" fill="none" stroke="#A8A8A8" stroke-miterlimit="10" x1="4" y1="12.5" x2="5" y2="12.5"/>
</g>
<g id="图层_2">
	<rect x="4" y="12" fill="#A8A8A8" width="4" height="3"/>
	<rect x="3" y="2" fill="#A8A8A8" width="8" height="4"/>
	<rect x="1" y="6" fill="#F8F8F8" width="12" height="5"/>
	<rect x="3" y="6" width="8" height="1"/>
	<rect x="1" y="5" width="3" height="1"/>
	<rect x="10" y="5" width="3" height="1"/>
	<rect x="11" y="6" width="2" height="1"/>
	<rect x="1" y="6" width="2" height="1"/>
	<rect x="2" y="7" width="1" height="1"/>
	<rect x="11" y="7" width="1" height="1"/>
	<rect x="5" y="8" width="1" height="2"/>
	<rect x="8" y="8" width="1" height="2"/>
	<rect x="2" y="3" width="1" height="2"/>
	<rect x="11" y="3" width="1" height="2"/>
	<rect y="7" width="1" height="4"/>
	<rect x="13" y="7" width="1" height="2"/>
	<rect x="1" y="9" width="2" height="2"/>
	<rect x="11" y="9" width="2" height="2"/>
	<rect x="10" y="10" width="1" height="1"/>
	<rect x="3" y="10" width="1" height="1"/>
	<rect x="4" y="1" width="6" height="1"/>
	<rect x="10" y="2" width="1" height="1"/>
	<rect x="3" y="2" width="1" height="1"/>
	<rect x="5" y="5" fill="#F8F8F8" width="4" height="1"/>
	<rect x="6" y="10" fill="#A8A8A8" width="2" height="1"/>
	<rect x="11" y="10" fill="#A8A8A8" width="1" height="1"/>
	<rect x="1" y="10" fill="#F8F8F8" width="1" height="1"/>
	<rect x="1" y="11" width="10" height="1"/>
	<rect x="11" y="11" fill="#F8F8F8" width="1" height="1"/>
	<rect x="12" y="11" width="1" height="2"/>
	<rect x="11" y="12" width="1" height="2"/>
	<rect x="2.999" y="13" width="1" height="2"/>
	<rect x="2" y="12" width="2" height="1"/>
	<rect x="6" y="14" width="2" height="1"/>
	<rect x="9" y="14" width="2" height="1"/>
	<rect x="4" y="13" width="2" height="1"/>
	<rect x="5" y="12" width="4" height="1"/>
	<rect x="7.998" y="13" width="1" height="1"/>
	<rect x="4" y="15" width="3" height="1"/>
	<rect x="9" y="12" fill="#F8F8F8" width="2" height="2"/>
</g>
</svg>
