<?xml version="1.0" encoding="utf-8"?>
<!-- Generator: Adobe Illustrator 16.0.0, SVG Export Plug-In . SVG Version: 6.00 Build 0)  -->
<!DOCTYPE svg PUBLIC "-//W3C//DTD SVG 1.1//EN" "http://www.w3.org/Graphics/SVG/1.1/DTD/svg11.dtd">
<svg version="1.1" id="图层_1" xmlns="http://www.w3.org/2000/svg" x="0px"
     y="0px"
     width="64px" height="112px" viewBox="0 0 64 112" enable-background="new 0 0 64 112" xml:space="preserve">
<rect fill="#F8F8F8" width="64" height="112"/>
    <rect x="2" y="4" width="1" height="104"/>
    <rect x="3" y="3" width="1" height="1"/>
    <rect x="4" y="2" width="55" height="1"/>
    <rect x="59" y="3" width="1" height="1"/>
    <rect x="60" y="4" width="1" height="104"/>
    <rect x="4" y="109" width="55" height="1"/>
    <rect x="3" y="108" width="57" height="1"/>
    <rect x="3" y="107" width="1" height="1"/>
    <rect x="59" y="107" width="1" height="1"/>
    <rect x="5" y="4" width="53" height="1"/>
    <rect x="4" y="5" width="55" height="1"/>
    <rect x="4" y="6" width="1" height="100"/>
    <rect x="58" y="6" width="1" height="100"/>
    <rect x="5" y="106" width="53" height="1"/>
    <rect x="5" y="6" width="1" height="1"/>
    <rect x="57" y="6" width="1" height="1"/>
</svg>
