<?xml version="1.0" encoding="utf-8"?>
<!-- Generator: Adobe Illustrator 16.0.0, SVG Export Plug-In . SVG Version: 6.00 Build 0)  -->
<!DOCTYPE svg PUBLIC "-//W3C//DTD SVG 1.1//EN" "http://www.w3.org/Graphics/SVG/1.1/DTD/svg11.dtd">
<svg version="1.1" id="图层_1" xmlns="http://www.w3.org/2000/svg" x="0px"
     y="0px"
     width="96px" height="80px" viewBox="0 0 96 80" enable-background="new 0 0 96 80" xml:space="preserve">
<rect fill="#F8F8F8" width="96" height="80"/>
    <rect x="4" y="2" width="87" height="1"/>
    <rect x="5" y="4" width="85" height="1"/>
    <rect x="4" y="5" width="87" height="1"/>
    <rect x="4" y="77" width="87" height="1"/>
    <rect x="3" y="76" width="89" height="1"/>
    <rect x="91" y="3" width="1" height="1"/>
    <rect x="3" y="3" width="1" height="1"/>
    <rect x="2" y="4" width="1" height="72"/>
    <rect x="92" y="4" width="1" height="72"/>
    <rect x="3" y="75" width="1" height="1"/>
    <rect x="91" y="75" width="1" height="1"/>
    <rect x="5" y="74" width="85" height="1"/>
    <rect x="90" y="6" width="1" height="68"/>
    <rect x="4" y="6" width="1" height="68"/>
    <rect x="5" y="6" width="1" height="1"/>
    <rect x="89" y="6" width="1" height="1"/>
    <g>
</g>
    <g>
</g>
    <g>
</g>
    <g>
</g>
    <g>
</g>
    <g>
</g>
    <g>
</g>
    <g>
</g>
    <g>
</g>
    <g>
</g>
    <g>
</g>
    <g>
</g>
    <g>
</g>
    <g>
</g>
    <g>
</g>
</svg>
