<?xml version="1.0" encoding="utf-8"?>
<!-- Generator: Adobe Illustrator 16.0.0, SVG Export Plug-In . SVG Version: 6.00 Build 0)  -->
<!DOCTYPE svg PUBLIC "-//W3C//DTD SVG 1.1//EN" "http://www.w3.org/Graphics/SVG/1.1/DTD/svg11.dtd">
<svg version="1.1" id="图层_1" xmlns="http://www.w3.org/2000/svg" xmlns:xlink="http://www.w3.org/1999/xlink" x="0px" y="0px"
	 width="128px" height="87.5px" viewBox="0 0 128 87.5" enable-background="new 0 0 128 87.5" xml:space="preserve">
<rect fill="#F8F8F8" width="128" height="87.5"/>
<rect x="4" y="2" width="119" height="1"/>
<rect x="5" y="4" width="117" height="1"/>
<rect x="4" y="5" width="119" height="1"/>
<rect x="4" y="85" width="119" height="1"/>
<rect x="3" y="84" width="121" height="1"/>
<rect x="123" y="3" width="1" height="1"/>
<rect x="3" y="3" width="1" height="1"/>
<rect x="2" y="4" width="1" height="80"/>
<rect x="124" y="4" width="1" height="80"/>
<rect x="3" y="83" width="1" height="1"/>
<rect x="123" y="83" width="1" height="1"/>
<rect x="5" y="82" width="117" height="1"/>
<rect x="122" y="6" width="1" height="76"/>
<rect x="4" y="6" width="1" height="76"/>
<rect x="5" y="6" width="1" height="1"/>
<rect x="121" y="6" width="1" height="1"/>
<g>
</g>
<g>
</g>
<g>
</g>
<g>
</g>
<g>
</g>
<g>
</g>
<g>
</g>
<g>
</g>
<g>
</g>
<g>
</g>
<g>
</g>
<g>
</g>
<g>
</g>
<g>
</g>
<g>
</g>
</svg>
