<?xml version="1.0" encoding="utf-8"?>
<!-- Generator: Adobe Illustrator 16.0.0, SVG Export Plug-In . SVG Version: 6.00 Build 0)  -->
<!DOCTYPE svg PUBLIC "-//W3C//DTD SVG 1.1//EN" "http://www.w3.org/Graphics/SVG/1.1/DTD/svg11.dtd">
<svg version="1.1" id="图层_1" xmlns="http://www.w3.org/2000/svg" x="0px"
     y="0px"
     width="48px" height="40px" viewBox="0 0 48 40" enable-background="new 0 0 48 40" xml:space="preserve">
<rect fill="#F8F8F8" width="48" height="40"/>
    <rect x="4" y="2" width="39" height="1"/>
    <rect x="5" y="4" width="37" height="1"/>
    <rect x="4" y="5" width="39" height="1"/>
    <rect x="4" y="37" width="39" height="1"/>
    <rect x="3" y="36" width="41" height="1"/>
    <rect x="43" y="3" width="1" height="1"/>
    <rect x="3" y="3" width="1" height="1"/>
    <rect x="2" y="4" width="1" height="32"/>
    <rect x="44" y="4" width="1" height="32"/>
    <rect x="3" y="35" width="1" height="1"/>
    <rect x="43" y="35" width="1" height="1"/>
    <rect x="5" y="34" width="37" height="1"/>
    <rect x="42" y="5" width="1" height="29"/>
    <rect x="4" y="5" width="1" height="29"/>
    <rect x="5" y="6" width="1" height="1"/>
    <rect x="41" y="6" width="1" height="1"/>
    <g>
</g>
    <g>
</g>
    <g>
</g>
    <g>
</g>
    <g>
</g>
    <g>
</g>
    <g>
</g>
    <g>
</g>
    <g>
</g>
    <g>
</g>
    <g>
</g>
    <g>
</g>
    <g>
</g>
    <g>
</g>
    <g>
</g>
</svg>
